<?xml version="1.0" encoding="UTF-8" standalone="no"?>
<svg
   xmlns:dc="http://purl.org/dc/elements/1.1/"
   xmlns:cc="http://creativecommons.org/ns#"
   xmlns:rdf="http://www.w3.org/1999/02/22-rdf-syntax-ns#"
   xmlns:svg="http://www.w3.org/2000/svg"
   xmlns="http://www.w3.org/2000/svg"
   id="svg8864"
   version="1.1"
   viewBox="0 0 26.458333 26.458334"
   height="100"
   width="100">
  <defs
     id="defs8858" />
  <metadata
     id="metadata8861">
    <rdf:RDF>
      <cc:Work
         rdf:about="">
        <dc:format>image/svg+xml</dc:format>
        <dc:type
           rdf:resource="http://purl.org/dc/dcmitype/StillImage" />
        <dc:title></dc:title>
      </cc:Work>
    </rdf:RDF>
  </metadata>
  <g
     id="layer1">
    <g
       id="g9473"
       transform="matrix(0.10324968,0,0,0.10324968,327.14987,4.1313531)">
      <path
         style="fill:#000000;stroke:none;stroke-width:0.1"
         d="m -3095.9038,16.95699 -3,2.8 1,13.5 c 0.6,7.4 1.9,17.1 2.9,21.5 1.3,5.8 1.5,8.4 0.7,9.7 -0.8,1.3 -0.3,4.7 2.1,14.1 1.8,6.9 3.2,13 3.2,13.6 0,0.8 -1.9,1.1 -5.7,0.9 l -5.8,-0.3 -5.5,-18 c -3.1,-9.9 -6.2,-19.8 -6.9,-21.9 -1.6,-4.7 -10.4,-13.9 -12.8,-13.4 -2.7,0.5 -4.3,4.7 -4.3,11.5 0,5.3 1,8.7 6.5,22.8 3.6,9.2 6.5,17.3 6.5,18 0,0.8 -1.2,1.5 -2.7,1.7 l -2.8,0.3 -1.7,17.5 c -3.8,40.9 -3.8,41.4 2.3,48.4 7,7.9 4.5,7.7 84,7.4 l 69.4,-0.3 4.7,-2.8 c 3,-1.7 5.7,-4.4 7.4,-7.3 2.6,-4.4 2.7,-4.9 2.1,-16.2 -0.6,-12.8 -3.5,-44 -4.2,-46 -0.3,-0.9 -4.8,-1.2 -17.5,-1.2 -9.3,0 -17,-0.2 -17,-0.5 0,-0.3 1.3,-3.2 3,-6.5 l 3,-5.9 10.5,5 c 11.7,5.4 14,5.9 13,3 -0.3,-1.2 0.3,-3.8 1.5,-6.1 1.2,-2.3 1.9,-4.8 1.6,-5.6 -0.3,-0.8 2.6,-8.1 6.5,-16.2 9.2,-19 9.1,-18.8 7.4,-20.2 -1,-0.8 -3.5,-0.4 -10.7,2.1 -5.1,1.7 -10.1,3.9 -11,4.8 -0.9,0.9 -3.7,5.8 -6.2,10.8 -2.6,5.1 -5,9.3 -5.6,9.3 -0.5,0 -2.1,2.2 -3.4,4.9 -1.4,2.6 -3.3,5.1 -4.4,5.3 -1.1,0.3 -3.1,3.4 -5.3,8.2 l -3.4,7.7 -6,-0.3 -6,-0.3 -0.3,-11.2 -0.3,-11.2 3.1,-3.5 c 4.1,-4.7 12.2,-8.6 17.8,-8.6 3,0 4.2,-0.4 4,-1.3 -0.7,-1.8 -8.1,-2 -12.4,-0.2 -2,0.8 -4,1.3 -4.3,1 -0.3,-0.4 3.4,-4.4 8.3,-9.1 10,-9.4 9.9,-8.9 1.4,-13.4 -3.1,-1.7 -3.8,-1.8 -3.8,-0.6 0,0.8 1.4,2.3 3,3.3 1.7,0.9 3,2 3,2.4 0,0.4 -2.9,3.5 -6.5,7 -3.6,3.4 -8.6,9.3 -11.2,13.1 -2.6,3.7 -5.1,6.8 -5.6,6.8 -0.5,0 -0.7,-0.6 -0.4,-1.3 0.3,-0.6 0.8,-2 1.2,-3 1.4,-3.4 -2.1,-1.8 -3.8,1.8 l -1.7,3.5 h -8.5 -8.5 l -2.1,-4.3 c -3.5,-6.8 -5.1,-8.9 -6.1,-7.9 -0.6,0.6 0,2.9 1.6,6 1.4,2.7 2.3,5.2 2,5.5 -0.8,0.8 -3.4,-0.3 -3.4,-1.5 0,-1.6 -5.9,-9.8 -13.7,-19 -4,-4.8 -7.3,-9 -7.3,-9.2 0,-0.4 8.7,-4.6 9.5,-4.6 0.2,0 1.5,2 2.9,4.5 1.5,2.5 3.1,4.5 3.6,4.5 0.6,0 1,-2.4 1,-5.4 v -5.3 l 3.8,-0.7 c 11.3,-1.8 40.2,0.6 40.2,3.4 0,0.4 -1.9,4 -4.1,8 -2.9,4.9 -3.8,7.5 -3.1,8.2 1.1,1.1 1.2,1 7.5,-10 2.1,-3.5 3.7,-6.9 3.7,-7.6 0,-1.4 -4.7,-2.9 -13.9,-4.6 -11.2,-2.1 -36,-0.7 -36.9,2 -0.2,0.6 -1.4,0.7 -2.6,0.4 -2.7,-0.6 -15.6,4.8 -15.6,6.6 0,0.6 3.5,5.1 7.7,10.1 9.1,10.5 10.5,12.6 7.7,11.5 -1,-0.4 -3.4,-1 -5.3,-1.3 -4.7,-0.8 -3.4,0.8 3.3,4.1 3,1.5 6.7,4.1 8.1,5.8 2.5,2.9 2.6,3.5 2.3,14.2 l -0.3,11.1 h -9.5 -9.4 l -2.2,-8 c -1.2,-4.4 -3.3,-12 -4.5,-16.9 -1.6,-6.3 -2.8,-9 -4,-9.3 -1.1,-0.3 -2.2,-2.6 -3.4,-7.1 -0.9,-3.6 -4,-11.6 -6.9,-17.6 -2.9,-6.1 -5.8,-13 -6.5,-15.4 -0.6,-2.3 -1.6,-4.2 -2.1,-4.2 -0.5,0 -2.3,1.2 -3.9,2.7 z m 3.2,3 c 0.2,0.5 0.7,2 1.1,3.5 0.5,2.3 0.3,2.8 -1.3,2.8 -2,0 -3.4,-3.2 -2.4,-5.6 0.6,-1.5 1.9,-1.9 2.6,-0.7 z m 6.3,14.9 c 1.4,3.2 2.1,6.1 1.7,6.5 -0.4,0.4 -2.6,1.1 -4.9,1.5 l -4.1,0.6 -0.7,-6.2 c -0.8,-6.6 -0.1,-8 3.7,-8 1.2,0 2.6,1.8 4.3,5.6 z m -34.4,11.1 c 3.2,3.5 5.1,7.1 4.5,8.7 -0.6,1.5 -8.3,3.9 -9.7,3.1 -1.1,-0.7 -1.4,-12.8 -0.3,-13.8 1.3,-1.3 2.9,-0.7 5.5,2 z m 170.8,-1.7 c 0,0.6 -2.1,5.5 -4.6,10.8 -2.5,5.3 -5.5,11.7 -6.7,14.2 -1.1,2.5 -2.2,4.7 -2.4,4.9 -0.4,0.6 -12.3,-5.1 -12.3,-5.8 0.1,-0.3 2.2,-4.9 4.8,-10.1 l 4.7,-9.4 7,-2.7 c 7.9,-3 9.5,-3.4 9.5,-1.9 z m -130.3,4.2 c 0.6,1.9 1.5,5.2 1.8,7.1 0.7,3.4 0.5,3.8 -2.1,4.7 -1.5,0.6 -4.4,1.2 -6.3,1.3 l -3.6,0.2 -1.7,-7 c -0.9,-3.9 -1.4,-7.3 -1,-7.7 0.8,-0.8 9.3,-2.7 10.7,-2.4 0.6,0.2 1.5,1.8 2.2,3.8 z m -32.8,12.8 c 1,2.9 0.8,3.1 -2.6,4.5 -5.2,2.2 -7.2,1.9 -7.9,-1 -0.8,-3 -0.3,-3.6 3.9,-5.2 4.8,-1.7 5.4,-1.6 6.6,1.7 z m 42.7,13.2 c 1.8,6.5 3.5,13.4 3.8,15.3 l 0.7,3.6 -9.8,-0.3 -9.8,-0.3 -3.4,-12.8 c -1.8,-7.1 -3.1,-13.1 -2.8,-13.4 0.9,-0.9 14.1,-4.2 16.2,-4 1.6,0.2 2.5,2.2 5.1,11.9 z m -37.1,5 c 1.9,6.1 3.5,11.7 3.5,12.5 0,0.9 -1.4,1.3 -4.4,1.3 h -4.3 l -4.2,-10.5 c -2.2,-5.8 -4.1,-10.9 -4.1,-11.4 0,-0.9 5.3,-2.8 8.2,-3 1.3,-0.1 2.5,2.4 5.3,11.1 z m 95.5,-2.7 v 5.5 h -14 -14 v -5.5 -5.5 h 14 14 z m 41,-2.4 c 3.8,1.8 7,3.8 7,4.6 0,1.1 -0.8,2.8 -3.6,7.1 -0.2,0.3 -14.3,-6.5 -15.2,-7.3 -0.5,-0.5 3.2,-7.5 4,-7.5 0.4,0 3.9,1.4 7.8,3.1 z m -41,14.9 v 4 h -14 -14 v -4 -4 h 14 14 z m 51,9.5 v 2.5 h -26.5 c -22.9,0 -26.5,0.2 -26.5,1.5 0,1.3 2.8,1.5 19,1.5 h 19.1 l -1.6,3 c -2.9,5.6 -1.1,11 3.8,11 2.8,0 4.1,-0.9 5.6,-3.7 0.9,-1.9 0.8,-3 -0.9,-6.3 l -2,-4 h 5.5 c 5,0 5.5,0.2 5.5,2.2 0.1,1.3 0.9,11 1.9,21.7 1,10.6 1.5,20.8 1.1,22.6 -1.1,4.7 -3.8,8 -9.1,10.9 l -4.7,2.6 h -69.1 c -74.7,0 -73.1,0.1 -78.9,-5.3 -5.8,-5.4 -6.2,-9.4 -3.4,-37.2 l 1.7,-17 6.3,-0.5 c 8.2,-0.7 8.5,-2.4 0.5,-2.8 -5.9,-0.3 -6.3,-0.4 -6.3,-2.7 v -2.5 h 79.5 79.5 z m -10.1,14.7 c -0.6,1 -1.8,1.8 -2.7,1.6 -2.1,-0.4 -2.8,-4.4 -1.1,-6.5 1.2,-1.3 1.5,-1.3 3.1,0.7 1.4,1.7 1.5,2.6 0.7,4.2 z"
         id="path9467" />
      <path
         style="fill:#000000;stroke:none;stroke-width:0.1"
         d="m -2961.8038,50.65699 c -3.9,1.2 -3.6,3.2 0.4,2.8 3,-0.4 5.4,-1.8 5.4,-3.3 0,-1.1 -1.4,-1 -5.8,0.5 z"
         id="path9469" />
      <path
         style="fill:#000000;stroke:none;stroke-width:0.1"
         d="m -3078.7038,112.95699 c -1,0.3 -1.3,4.3 -1.3,15 v 14.5 l 3.4,3.4 3.4,3.4 h 32.7 32.7 l 3.4,-3.4 3.5,-3.5 -0.3,-14.8 -0.3,-14.8 -38,-0.2 c -20.9,-0.1 -38.6,0.1 -39.2,0.4 z m 74.7,15.7 c 0,19.1 3.1,17.6 -36.7,17.6 h -31.4 l -2.4,-2.5 c -2.4,-2.3 -2.5,-2.9 -2.5,-15.5 v -13 h 36.5 36.5 z"
         id="path9471" />
    </g>
  </g>
</svg>
