<?xml version="1.0" encoding="UTF-8" standalone="no"?>
<svg
   xmlns:dc="http://purl.org/dc/elements/1.1/"
   xmlns:cc="http://creativecommons.org/ns#"
   xmlns:rdf="http://www.w3.org/1999/02/22-rdf-syntax-ns#"
   xmlns:svg="http://www.w3.org/2000/svg"
   xmlns="http://www.w3.org/2000/svg"
   id="svg8262"
   version="1.1"
   viewBox="0 0 26.458333 26.458334"
   height="100"
   width="100">
  <defs
     id="defs8256" />
  <metadata
     id="metadata8259">
    <rdf:RDF>
      <cc:Work
         rdf:about="">
        <dc:format>image/svg+xml</dc:format>
        <dc:type
           rdf:resource="http://purl.org/dc/dcmitype/StillImage" />
        <dc:title></dc:title>
      </cc:Work>
    </rdf:RDF>
  </metadata>
  <g
     id="layer1">
    <g
       id="g6399"
       transform="matrix(0.11200187,0,0,0.11200187,146.31178,24.80502)">
      <path
         style="fill:#000000;stroke:none;stroke-width:0.1"
         d="m -1164.3175,-195.8208 c -1.1,2 -1.6,3.9 -1.1,4.3 0.9,0.9 5.7,-4.7 5.3,-6.1 -0.7,-2.2 -2.5,-1.4 -4.2,1.8 z"
         id="path6377" />
      <path
         style="fill:#000000;stroke:none;stroke-width:0.1"
         d="m -1147.4175,-186.7208 c -10,10.2 -20.4,14.5 -47.4,20 -33.7,6.8 -39.9,9.2 -48.7,18.9 -8,8.9 -11.3,17.7 -11.3,30.2 0,13.7 3.4,21.1 16.4,35.8 24.4,27.4 30,38.5 25,49.2 -1.5,3.2 -8.5,8.4 -11.2,8.4 -0.6,0 -2.3,0.5 -3.9,1.1 -2.5,0.9 -2.6,1.2 -1.1,2 2.3,1.3 8.4,-0.3 12.9,-3.4 8.6,-5.8 10.2,-16.7 4.1,-28.8 -3.3,-6.7 -8.7,-13.7 -24.1,-31.4 -11.7,-13.5 -14.3,-18.9 -14.9,-30.6 -0.8,-15.5 5.4,-28.4 17.7,-36.7 3.4,-2.3 6.7,-4.2 7.2,-4.2 0.5,0 0.9,12.6 0.9,29.8 0,17.3 0.5,32.3 1.1,35.7 1.9,10.6 6,17.7 15.4,27.3 l 8.5,8.7 v 6.2 c 0,11 -3.3,23 -8.6,31.4 -2.7,4.3 -3,5.9 -1.1,5.9 1.3,0 6.5,-8.3 8.5,-13.5 2.2,-5.7 4.2,-16 4.2,-21.8 v -5.8 l 9.1,8.3 c 11.9,10.9 14.3,12.1 24.2,11.9 9.8,-0.1 12.5,-1.5 23.7,-12 l 8.5,-8 1.2,10.2 c 0.6,5.6 1.8,12 2.6,14.3 2.2,6.1 6.3,13.9 8.1,15.4 3.1,2.5 2.9,0 -0.7,-6.7 -4.7,-9.2 -6.6,-16.1 -7.4,-26.8 l -0.6,-9.1 8.5,-8.4 c 8.4,-8.4 12.7,-15.3 15,-23.7 0.6,-2.1 1.4,-15.7 1.7,-30.3 l 0.6,-26.5 3.8,7.7 c 3.9,8 6.7,19.5 6.7,27.8 0,6.3 -2.5,18 -5,23.8 -1.9,4.3 -1.9,6.9 0.2,5.6 1.6,-1 4.8,-9.4 6.4,-16.7 3.8,-18.3 -0.5,-37.3 -12,-52.5 -4.5,-5.8 -11.8,-12 -34.4,-29.1 l -8.3,-6.3 3.6,-3.9 c 2,-2.2 3.3,-4.4 3,-4.9 -1,-1.6 -1.6,-1.1 -8.1,5.5 z m 15.6,17.8 c 8,6.1 16.9,13.3 19.8,16.1 5.1,4.9 5.2,5.2 5.2,10.7 v 5.7 l -6.7,-6.7 c -12.3,-12.3 -28.8,-18.1 -51.4,-18.1 -25.1,0 -45.2,8.4 -56.4,23.5 -1.3,1.8 -1.4,1 -1.5,-8.8 0,-7.7 0.4,-10.9 1.3,-11.2 0.6,-0.3 11.9,-2.7 24.9,-5.4 25,-5.3 34.9,-8.6 43.4,-14.6 2.6,-1.9 5.2,-3.1 5.8,-2.8 0.6,0.4 7.6,5.6 15.6,11.6 z m -11.2,12.9 c 2.9,0.8 5.5,1.7 5.7,2 0.3,0.2 -0.1,1.8 -0.7,3.6 -0.7,1.7 -0.9,3.5 -0.4,3.9 0.7,0.8 1.6,-0.2 4.2,-4.4 1.1,-1.7 1.5,-1.7 6.8,1.1 7.7,3.9 14.2,9.9 17.3,15.9 2.2,4.5 2.6,6.6 3,19.1 0.3,8.5 0.1,17.1 -0.6,21.6 -1.3,7.9 -5.8,18.4 -9.5,21.9 l -2.3,2.1 -1.8,-2 c -1,-1.1 -2.2,-2 -2.7,-2 -1.4,0 -0.9,2.2 1,4.3 1.6,1.9 1.3,2.3 -10.8,13.9 -20.1,19.2 -20.1,19.2 -28.1,19.6 -12.1,0.7 -12.4,0.6 -29.7,-15.5 -8.6,-8.1 -15.9,-15.1 -16.1,-15.6 -0.2,-0.4 0.7,-1.9 1.9,-3.2 2.9,-3.1 0.7,-4.5 -2.5,-1.5 l -2.4,2.3 -2.1,-2.4 c -3.3,-4 -7.9,-14.1 -9,-19.8 -0.5,-2.9 -1,-11.8 -1,-19.6 0,-17.5 1.3,-22.3 7.9,-29.5 4.5,-4.8 15.1,-12 17.8,-12 0.8,0 1.9,1.4 2.5,3 0.5,1.7 1.5,2.9 2.2,2.7 1.2,-0.5 1.3,-2 0.2,-5.4 -0.7,-2.3 0.2,-2.8 10.9,-5.3 6,-1.4 32,-0.5 38.3,1.2 z"
         id="path6379" />
      <path
         style="fill:#000000;stroke:none;stroke-width:0.1"
         d="m -1200.5175,-134.2208 c -5.7,1.2 -9.5,3.3 -13,7.4 -9.5,10.7 -0.8,25.8 15.6,27.3 8.7,0.8 14.5,-1.1 20.3,-6.7 4.6,-4.4 4.8,-4.9 4.8,-9.9 0,-9.6 -6.2,-15.9 -17.5,-18 -3.2,-0.6 -5.9,-1.1 -5.9,-1 -0.1,0.1 -2,0.5 -4.3,0.9 z m 15.3,4.6 c 5.7,2.7 9.4,7.8 9.4,12.9 0,3.9 -0.5,5 -3.9,8.4 -7.6,7.6 -21.1,8.2 -29.2,1.4 -2.9,-2.5 -5.9,-7.7 -5.9,-10.2 0,-1.7 4.1,-3.3 6.8,-2.6 l 2.6,0.6 -3,2.4 c -2.3,1.9 -2.6,2.6 -1.7,3.6 1,1 1.7,0.9 3.2,-0.5 1.5,-1.4 2.9,-1.7 5.3,-1.2 11.2,2.1 16.6,1.9 20.3,-0.8 3.1,-2.2 0.9,-3.7 -3,-2 -6.4,2.6 -11.6,1.7 -21.5,-4.1 -1.4,-0.8 -3.3,-1.5 -4.2,-1.5 -1,0 -1.8,-0.4 -1.8,-0.9 0,-1.1 4.8,-4.7 8.1,-6 3.9,-1.6 14.7,-1.3 18.5,0.5 z"
         id="path6381" />
      <path
         style="fill:#000000;stroke:none;stroke-width:0.1"
         d="m -1138.8175,-134.1208 c -17.1,3.2 -22.7,20.4 -9.8,30.2 9.6,7.3 27.3,5.5 34.2,-3.5 10.3,-13.7 -4.8,-30.3 -24.4,-26.7 z m 14.8,4.4 c 3.5,1.5 8.2,5.2 8.2,6.4 0,0.4 -1.7,0.7 -3.7,0.7 -2.5,0 -5.3,1 -8.2,2.9 -3.6,2.5 -5.5,3 -10,3 -3.1,-0.1 -7.1,-0.5 -8.8,-0.9 -4.7,-1.2 -4.3,1.1 0.4,3.1 3.6,1.5 8.5,1.4 18.4,-0.3 2.5,-0.4 3.9,-0.1 4.8,1 0.8,0.9 1.7,1.6 2.2,1.6 1.7,0 0.9,-3.2 -1.3,-5 l -2.2,-1.7 2.3,-0.8 c 2.8,-0.9 8.1,1.2 8.1,3.2 0,3.6 -3.5,8.5 -7.9,11.1 -3.9,2.3 -5.7,2.7 -12.1,2.7 -6.2,0 -8.2,-0.4 -11.4,-2.4 -14.3,-8.9 -7.1,-25.9 11.2,-26.1 3.5,0 7.9,0.7 10,1.5 z"
         id="path6383" />
      <path
         style="fill:#000000;stroke:none;stroke-width:0.1"
         d="m -1172.8175,-88.1208 c 0,4 11.3,5.4 14.5,1.9 2.2,-2.4 1.2,-3.9 -1.5,-2.2 -2.4,1.5 -8.6,1.6 -9.5,0.2 -0.8,-1.4 -3.5,-1.3 -3.5,0.1 z"
         id="path6385" />
      <path
         style="fill:#000000;stroke:none;stroke-width:0.1"
         d="m -1179.3175,-75.8208 c -15.1,5.2 -15.4,15 -0.6,20.6 6.5,2.5 21.3,2.7 29.1,0.4 6.5,-1.9 12,-6.9 12,-10.9 0,-9.8 -23.8,-15.8 -40.5,-10.1 z m 27.8,2.6 c 2.1,0.6 5.2,2.4 7,4 3.1,2.8 3.2,3 1.7,5.7 -6.3,11.4 -47.6,8.7 -44.7,-2.9 0.7,-2.7 5.1,-5.5 11.6,-7.4 5.3,-1.5 18.6,-1.2 24.4,0.6 z"
         id="path6387" />
      <path
         style="fill:#000000;stroke:none;stroke-width:0.1"
         d="m -1175.6175,-69.7208 c -4.5,1.4 -7.2,3.1 -7.2,4.7 0,0.5 2.1,1.9 4.8,3.1 6.7,3 19.7,3 26.5,-0.1 5.6,-2.5 5.7,-3.9 0.3,-6.6 -4.6,-2.3 -18.2,-2.9 -24.4,-1.1 z m 22.5,3.4 c 5,2.8 -15.7,4.9 -22.1,2.2 -1.6,-0.6 -2.6,-1.4 -2.3,-1.7 2.1,-2.1 20.9,-2.5 24.4,-0.5 z"
         id="path6389" />
      <path
         style="fill:#000000;stroke:none;stroke-width:0.1"
         d="m -1251.0175,-188.0208 c -6.3,9.6 -9.8,21.1 -9.8,32.3 0,8.2 0.7,11.5 2.5,11.5 1,0 1.2,-2 0.8,-8.3 -0.3,-5.6 0,-10.4 1.1,-15 1.6,-6.7 6.6,-18 8.6,-19.2 1.5,-0.9 1.2,-3.5 -0.4,-3.5 -0.7,0 -2,1 -2.8,2.2 z"
         id="path6391" />
      <path
         style="fill:#000000;stroke:none;stroke-width:0.1"
         d="m -1176.2175,-184.6208 c -2.6,1.9 -7.6,4.2 -10.9,5.3 -6.6,2 -8.7,4.1 -4,4.1 6,-0.1 22.3,-8.6 22.3,-11.6 0,-2.1 -2,-1.5 -7.4,2.2 z"
         id="path6393" />
      <path
         style="fill:#000000;stroke:none;stroke-width:0.1"
         d="m -1251.3175,-153.0208 c -1.9,5.3 -2.4,10 -0.9,10.5 1,0.3 4.4,-9.8 4.4,-13.2 0,-2.9 -1.9,-1.5 -3.5,2.7 z"
         id="path6395" />
      <path
         style="fill:#000000;stroke:none;stroke-width:0.1"
         d="m -1279.8175,-86.2208 c 0,0.6 1,3.1 2.1,5.5 3.3,7 9.4,11.6 23.2,17.5 6.7,2.9 14.5,6.7 17.3,8.5 5.4,3.4 12.3,10.8 12.6,13.4 0,0.9 0.2,2.8 0.3,4.4 0.3,3.5 1.3,4.6 2.6,2.7 1.2,-1.9 0.3,-7.4 -2.2,-12.1 -3.5,-6.9 -6.3,-8.7 -38.6,-24 -6.5,-3.1 -11.5,-8.2 -13.4,-13.8 -1,-2.9 -3.9,-4.4 -3.9,-2.1 z"
         id="path6397" />
    </g>
  </g>
</svg>
