<?xml version="1.0" encoding="UTF-8" standalone="no"?>
<svg
   xmlns:dc="http://purl.org/dc/elements/1.1/"
   xmlns:cc="http://creativecommons.org/ns#"
   xmlns:rdf="http://www.w3.org/1999/02/22-rdf-syntax-ns#"
   xmlns:svg="http://www.w3.org/2000/svg"
   xmlns="http://www.w3.org/2000/svg"
   id="svg6429"
   version="1.1"
   viewBox="0 0 26.458333 26.458334"
   height="100"
   width="100">
  <defs
     id="defs6423" />
  <metadata
     id="metadata6426">
    <rdf:RDF>
      <cc:Work
         rdf:about="">
        <dc:format>image/svg+xml</dc:format>
        <dc:type
           rdf:resource="http://purl.org/dc/dcmitype/StillImage" />
        <dc:title></dc:title>
      </cc:Work>
    </rdf:RDF>
  </metadata>
  <g
     id="layer1">
    <path
       id="path3691-4"
       d="M 18.259936,3.2832236 C 17.55796,4.6871743 16.063433,5.8760034 14.274528,6.4421125 13.968828,6.544012 12.791323,6.8044222 11.670426,7.0308657 7.9227845,7.800774 7.458575,7.9706069 6.4395786,9.0009249 c -1.9247711,1.9360931 -1.9247711,4.9591161 0,7.0876851 2.3889808,2.660713 3.3287216,4.053341 3.441944,5.061016 0.1019025,0.962385 -0.5661091,1.822872 -1.5511403,1.992704 -0.2604094,0.04529 -0.4755309,0.124542 -0.4642087,0.192477 0.011328,0.215122 0.5887541,0.181156 1.0869297,-0.05661 C 9.9607775,22.791342 10.39102,21.896891 10.141932,20.787315 9.9154886,19.779643 9.1569022,18.658746 6.9830433,16.201833 5.9866914,15.069615 5.5451261,14.265739 5.3866156,13.28071 5.0922388,11.401228 5.907436,9.5896785 7.5265082,8.5480383 7.8095627,8.3668832 8.0926174,8.2196948 8.1718724,8.2196948 c 0.1132225,0 0.1471884,0.7925532 0.1811544,3.3626872 0.045295,3.826898 0.079247,4.030697 1.0416417,5.321427 0.4868541,0.656685 3.7589645,3.747641 4.3930055,4.155239 0.237766,0.147197 0.622719,0.237766 1.222796,0.271732 1.154863,0.06793 1.573783,-0.13587 2.9098,-1.381304 0.566109,-0.532143 1.086929,-0.973709 1.154863,-0.973709 0.07925,0 0.124542,0.328343 0.124542,0.894452 0,0.588755 0.07926,1.166186 0.237766,1.664361 0.294377,0.962387 0.871808,2.083282 1.075608,2.083282 0.226443,0 0.192477,-0.169833 -0.13587,-0.701976 -0.554786,-0.871809 -0.815197,-1.845514 -0.894452,-3.407975 l -0.04529,-0.894454 0.452887,-0.486854 c 0.407599,-0.430242 0.554787,-0.735942 0.373633,-0.735942 -0.09058,0 -0.622721,0.475531 -2.287082,2.026672 -1.66436,1.573783 -1.766261,1.619072 -2.921122,1.573783 -1.064284,-0.05661 -0.939742,0.02264 -2.864511,-1.766261 C 10.062677,17.254796 9.6097888,16.779263 9.2814461,16.133899 8.715337,15.024326 8.670048,14.639371 8.670048,11.197428 V 7.9932511 l 0.2604108,-0.056611 c 0.13587,-0.033966 1.3473402,-0.2830547 2.6833572,-0.5547871 3.192855,-0.6566865 4.370361,-1.1095737 5.434647,-2.0606372 0.237765,-0.2151212 0.498175,-0.3849539 0.57743,-0.3849539 0.192478,0.011328 2.909802,2.0832812 3.577809,2.75129 l 0.486854,0.4642094 0.02264,2.8305457 c 0.02264,2.139892 0.06793,2.830544 0.181156,2.875834 0.101902,0.03397 0.13587,-0.520822 0.13587,-2.524847 0,-2.830545 0.02264,-2.8984784 0.600075,-1.7096484 0.849164,1.7209724 0.905775,3.8608614 0.169833,5.7063774 -0.124543,0.328344 -0.203799,0.622722 -0.169833,0.668011 0.147182,0.147181 0.41892,-0.237767 0.668008,-0.962385 0.226444,-0.656687 0.260411,-0.973708 0.260411,-2.400303 -0.01136,-1.483206 -0.03397,-1.70965 -0.3057,-2.400302 C 22.528397,8.344239 21.950965,7.6988745 18.769433,5.2872497 17.920269,4.6418856 17.841014,4.5513078 17.999525,4.3814753 18.225968,4.132387 18.860009,2.8416586 18.860009,2.6265371 c 0,-0.373632 -0.203799,-0.1471884 -0.600073,0.6566865 z"
       style="fill:#000000;stroke:none;stroke-width:0.0113222" />
    <path
       id="path3703-1"
       d="m 15.870956,3.2605791 c -0.203801,0.2830547 -0.237767,0.5434649 -0.07925,0.5434649 0.113214,0 0.464209,-0.5094982 0.464209,-0.679331 0,-0.1924771 -0.2038,-0.1245439 -0.384955,0.1358669 z"
       style="fill:#000000;stroke:none;stroke-width:0.0113222" />
    <path
       id="path3711-0"
       d="M 6.043302,3.6568556 C 5.7376031,4.0078433 5.2847162,4.9702286 5.1035612,5.6722041 4.8318286,6.7138446 4.9110842,9.0575369 5.1941385,8.5933273 5.2281053,8.5367153 5.2620717,8.0272178 5.2620717,7.472431 5.2507488,6.0684803 5.5677705,4.8909736 6.1791684,4.0304874 6.5414782,3.5323115 6.4169341,3.2266127 6.043302,3.6568556 Z"
       style="fill:#000000;stroke:none;stroke-width:0.0113222" />
    <path
       id="path3713-8"
       d="m 14.410393,4.6645298 c -0.305698,0.2037991 -0.849162,0.4642093 -1.222794,0.566109 -0.396276,0.1132225 -0.668009,0.249088 -0.668009,0.3396653 0,0.2151215 0.113215,0.2037996 0.928418,-0.079255 0.735942,-0.2377657 1.743616,-0.8491634 1.834194,-1.0869296 0.101903,-0.2604102 -0.3057,-0.1358654 -0.871809,0.2604103 z"
       style="fill:#000000;stroke:none;stroke-width:0.0113222" />
    <path
       id="path3717-1"
       d="M 5.9980133,7.5969749 C 5.7376031,8.2310171 5.658348,8.8310921 5.8395028,8.7631586 6.03198,8.7065482 6.4282563,7.4044978 6.2923902,7.2686314 6.2244571,7.2006986 6.1112353,7.3252425 5.9980133,7.5969749 Z"
       style="fill:#000000;stroke:none;stroke-width:0.0113222" />
    <path
       id="path3719-8"
       d="m 9.9494545,8.5706828 c -0.3170212,0.079247 -0.4868541,0.1811543 -0.4868541,0.2943768 0,0.1245423 0.067935,0.1585098 0.2604108,0.090575 0.13587,-0.045295 0.6906528,-0.1019024 1.2227958,-0.1358699 1.154863,-0.067935 1.641715,0.056607 2.128571,0.5547875 0.384953,0.3962762 0.566108,0.3509872 0.37363,-0.079263 -0.215122,-0.4755311 -0.973707,-0.7699078 -2.060636,-0.8038738 -0.532143,-0.02264 -1.177507,0.02264 -1.4379175,0.079263 z"
       style="fill:#000000;stroke:none;stroke-width:0.0113222" />
    <path
       id="path3721-6"
       d="m 17.841015,8.6159718 c -0.464209,0.2151203 -1.018997,0.7132974 -1.018997,0.9284177 0,0.2264448 0.09058,0.1811559 0.577432,-0.2377648 0.249088,-0.2038003 0.611398,-0.4075992 0.803875,-0.4528881 0.543465,-0.1019025 1.687005,-0.079247 2.173859,0.056607 0.305698,0.079247 0.475531,0.079247 0.554786,0 C 21.29428,8.548035 18.565636,8.2876248 17.841015,8.6159684 Z"
       style="fill:#000000;stroke:none;stroke-width:0.0113222" />
    <path
       id="path3723-4"
       d="m 9.5531783,11.174785 c -0.3396657,0.192476 -0.2377648,0.339665 0.1924774,0.260409 0.2151218,-0.03397 0.4755313,-0.03397 0.5774303,0 0.169833,0.06794 0.158512,0.101902 -0.06794,0.350989 -0.339664,0.362308 -0.203799,0.498175 0.226445,0.249088 0.305698,-0.192478 0.373632,-0.192478 0.973708,-0.01136 0.690652,0.192476 1.44924,0.147182 1.811548,-0.124542 0.328343,-0.237765 0.101903,-0.328343 -0.452886,-0.169831 -0.656687,0.181154 -1.302051,0.06793 -1.902128,-0.350989 C 10.413658,11.050206 9.904159,10.970951 9.5531718,11.17475 Z"
       style="fill:#000000;stroke:none;stroke-width:0.0113222" />
    <path
       id="path3725-4"
       d="m 19.482732,11.389905 c -0.735942,0.430244 -1.403951,0.532143 -1.992704,0.3057 -0.249088,-0.101903 -0.46421,-0.124543 -0.509499,-0.06794 -0.113214,0.192477 0.06793,0.31702 0.668009,0.441565 0.486854,0.113215 0.713297,0.101902 1.24544,-0.02264 0.566109,-0.147182 0.67933,-0.147182 0.98503,0 0.452887,0.215122 0.554786,0.09057 0.226443,-0.260411 -0.226443,-0.249088 -0.237766,-0.283053 -0.06793,-0.350987 0.101903,-0.03397 0.362311,-0.03397 0.566109,0 0.475533,0.09057 0.622721,-0.07925 0.226444,-0.260409 -0.441565,-0.192478 -0.735941,-0.147182 -1.347339,0.215122 z"
       style="fill:#000000;stroke:none;stroke-width:0.0113222" />
    <path
       id="path3727-5"
       d="m 20.105451,13.076911 c -1.211473,0.373631 -2.185181,1.585104 -2.28708,2.830545 l -0.03397,0.498175 1.528494,0.384955 c 1.743617,0.441565 1.902126,0.543465 3.770286,2.287081 0.611398,0.57743 1.154863,1.007676 1.211475,0.973708 0.15851,-0.101902 -0.03397,-0.328344 -1.03032,-1.24544 -0.486853,-0.441566 -0.871808,-0.849165 -0.883131,-0.917097 -0.01136,-0.06793 0.09058,-0.215122 0.215124,-0.328344 0.226442,-0.203799 0.237765,-0.203799 0.656685,0.192477 0.82652,0.769908 0.973709,0.883131 1.075608,0.781231 0.05661,-0.05661 -0.407598,-0.611398 -1.132218,-1.324695 -1.222795,-1.234119 -1.222795,-1.234119 -1.539816,-2.253115 -0.600075,-1.890804 -0.645364,-1.981381 -0.973708,-1.970059 -0.15851,0 -0.418919,0.04529 -0.577431,0.09057 z m 1.086929,1.539815 c 0.317022,0.92842 0.396277,1.336019 0.3057,1.426595 -0.07926,0.07926 -0.158511,-0.03397 -0.271732,-0.396274 -0.07926,-0.283056 -0.215122,-0.520822 -0.294378,-0.520822 -0.192476,0 -0.181155,0.03397 0.04529,0.758586 0.169831,0.543465 0.169831,0.62272 0.01136,0.781231 -0.147182,0.15851 -0.260409,0.147183 -1.052962,-0.05661 -0.486854,-0.124542 -0.928419,-0.271732 -0.973708,-0.31702 -0.124542,-0.124542 0.07926,-0.758586 0.373632,-1.18883 0.249089,-0.350987 0.260411,-0.543464 0.0453,-0.543464 -0.15851,0 -0.860486,1.256762 -0.860486,1.551138 0,0.181156 -0.13587,0.192478 -0.305698,0.02264 -0.271734,-0.271732 0.249088,-1.517173 0.88313,-2.105926 0.305699,-0.283055 1.200152,-0.701975 1.483206,-0.713298 0.13587,0 0.294376,0.317022 0.611398,1.302051 z m 1.007675,2.060638 c 0.339665,0.384954 0.339665,0.384954 0.05661,0.713297 l -0.226445,0.260411 -0.396276,-0.3057 c -0.21512,-0.169831 -0.396276,-0.339664 -0.396276,-0.373631 0,-0.113215 0.475531,-0.600075 0.588753,-0.600075 0.05661,0 0.226444,0.13587 0.373632,0.305698 z"
       style="fill:#000000;stroke:none;stroke-width:0.0113222" />
    <path
       id="path3729-5"
       d="m 19.89033,14.039296 c -0.101903,0.113215 -0.101903,0.181156 -0.01136,0.237766 0.192478,0.113215 0.418921,-0.13587 0.271732,-0.283055 -0.09057,-0.09057 -0.169832,-0.06794 -0.26041,0.04529 z"
       style="fill:#000000;stroke:none;stroke-width:0.0113222" />
    <path
       id="path3731-8"
       d="m 14.331138,15.182835 c 0,0.418921 1.188831,0.588754 1.585105,0.226445 0.317023,-0.283055 0.113215,-0.441565 -0.294375,-0.226445 -0.407599,0.215122 -0.475533,0.215122 -0.88313,0 -0.396277,-0.203798 -0.4076,-0.203798 -0.4076,0 z"
       style="fill:#000000;stroke:none;stroke-width:0.0113222" />
    <path
       id="path3733-9"
       d="m 2.1031828,16.518854 c 0,0.362309 0.5774315,1.234117 1.0189966,1.551139 0.1924771,0.13587 1.0642851,0.57743 1.9247708,0.962385 2.3323694,1.052965 3.0683113,1.675683 3.2381447,2.751292 0.045295,0.283053 0.1245423,0.464208 0.2037988,0.441565 C 8.715337,22.1573 8.6926925,21.727058 8.4322863,21.126981 8.0360063,20.198562 7.0962653,19.553198 4.5600965,18.466269 3.4505226,17.990738 2.7711916,17.413306 2.4881372,16.711331 2.2843379,16.213154 2.1031828,16.122578 2.1031828,16.518854 Z"
       style="fill:#000000;stroke:none;stroke-width:0.0113222" />
    <path
       id="path3735-8"
       d="m 14.195273,16.530175 c -0.430244,0.181156 -0.996353,0.747265 -0.996353,0.98503 0,0.283055 0.747264,0.973708 1.211473,1.132218 0.645366,0.215122 1.551141,0.07926 2.105927,-0.305698 0.260411,-0.192477 0.52082,-0.475533 0.57743,-0.645364 0.09058,-0.260411 0.06793,-0.350989 -0.226442,-0.656687 -0.181155,-0.192477 -0.430243,-0.407599 -0.554787,-0.46421 -0.3057,-0.169833 -1.743616,-0.192477 -2.117248,-0.04529 z m 1.856837,0.283056 c 0.169833,0.02264 0.769908,0.611398 0.769908,0.758585 0,0.09057 -0.237765,0.317022 -0.532142,0.498177 -0.871807,0.554786 -1.845515,0.452886 -2.513525,-0.271733 -0.237765,-0.249087 -0.249088,-0.317021 -0.113215,-0.475532 0.350987,-0.430242 0.758585,-0.577431 1.551139,-0.543465 0.418921,0.01136 0.792552,0.03397 0.837841,0.03397 z"
       style="fill:#000000;stroke:none;stroke-width:0.0113222" />
  </g>
</svg>
