<?xml version="1.0" encoding="UTF-8" standalone="no"?>
<svg
   xmlns:dc="http://purl.org/dc/elements/1.1/"
   xmlns:cc="http://creativecommons.org/ns#"
   xmlns:rdf="http://www.w3.org/1999/02/22-rdf-syntax-ns#"
   xmlns:svg="http://www.w3.org/2000/svg"
   xmlns="http://www.w3.org/2000/svg"
   id="svg9564"
   version="1.1"
   viewBox="0 0 26.458333 26.458334"
   height="100"
   width="100">
  <defs
     id="defs9558" />
  <metadata
     id="metadata9561">
    <rdf:RDF>
      <cc:Work
         rdf:about="">
        <dc:format>image/svg+xml</dc:format>
        <dc:type
           rdf:resource="http://purl.org/dc/dcmitype/StillImage" />
        <dc:title></dc:title>
      </cc:Work>
    </rdf:RDF>
  </metadata>
  <g
     id="layer1">
    <path
       id="path9499"
       d="M 9.1208885,4.7303327 C 9.0961345,5.0645401 9.0218645,5.1511862 8.7743034,5.1759425 7.957352,5.2625885 7.6231447,5.3616126 7.4003398,5.5844175 7.1775349,5.8072224 7.1651568,6.0052714 7.1651568,8.5799058 V 11.340211 L 6.4348519,11.488747 C 5.5188761,11.674418 5.3332053,11.884845 5.2836931,12.776064 L 5.2465591,13.481613 4.8504615,13.295942 C 4.5162542,13.12265 4.1077785,12.751308 3.1794249,11.748686 2.9318638,11.476369 2.2263151,11.426857 1.9911321,11.66204 c -0.3218292,0.321829 -0.074268,2.104268 0.4456097,3.193536 0.4084758,0.866465 1.5225002,1.980489 2.2775614,2.302318 0.581768,0.235183 0.5941462,0.247561 0.5941462,0.804573 0,0.742683 0.2228048,0.940732 1.3244515,1.163537 0.8912194,0.185671 3.6143901,0.433231 4.9883541,0.44561 h 0.804573 l 0.371342,0.581767 c 0.222805,0.334208 0.618902,0.730306 0.977866,0.95311 0.56939,0.346587 0.69317,0.371342 1.794816,0.371342 1.361586,0 1.90622,-0.210426 2.599391,-0.990244 l 0.396097,-0.44561 0.581769,0.284695 c 0.470366,0.235183 0.779817,0.284696 1.633902,0.284696 1.175916,-0.01238 1.683415,-0.185671 2.339452,-0.82933 0.742683,-0.717927 0.878841,-1.163536 0.878841,-2.760305 V 15.59826 h -2.228048 -2.228049 v -1.869086 -1.856707 l -0.396098,-0.173293 c -0.222805,-0.08665 -0.618903,-0.198049 -0.866464,-0.247561 L 17.81028,11.364967 V 8.6541739 c 0,-2.6241466 -0.01238,-2.7107928 -0.272318,-3.0202442 C 17.315157,5.3863689 17.104731,5.2997224 16.547719,5.2378321 15.866925,5.1759421 15.84217,5.1511861 15.805036,4.7798449 L 15.767902,4.3961251 12.462962,4.358991 9.1580229,4.3342369 Z m 6.3128055,0.6807921 -0.03713,0.7179268 -2.933598,0.037134 -2.9459759,0.024758 V 5.4482606 4.7055779 h 2.9707319 2.98311 z m -6.3623176,0.7179268 0.086646,0.433232 3.3049396,-0.024754 3.30494,-0.037134 0.03713,-0.4084758 c 0.03713,-0.3837195 0.04951,-0.3960976 0.643658,-0.3960976 0.990244,0 0.990244,0 0.990244,2.9831102 V 11.265944 H 17.01808 c -0.767438,0 -1.151159,-0.136158 -1.299695,-0.457988 -0.185667,-0.396097 -1.039752,-0.779817 -1.770056,-0.779817 -0.371342,0 -0.594147,-0.049512 -0.594147,-0.1485365 0,-0.2846952 -0.532257,-0.7179268 -0.89122,-0.7179268 -0.346585,0 -0.965488,0.470366 -0.965488,0.742683 0,0.06189 -0.210427,0.1237803 -0.457988,0.1237803 -0.792195,0 -1.3615849,0.222805 -1.7453047,0.693171 -0.3094511,0.383719 -0.4579876,0.44561 -1.0645123,0.5075 l -0.6931705,0.07427 V 8.6417975 c 0,-1.8938413 0.037134,-2.6860365 0.1485364,-2.797439 0.086646,-0.086647 0.4084758,-0.1485368 0.730305,-0.1485368 0.5693903,0 0.5817684,0.012379 0.6560365,0.4332316 z m 3.7876826,3.5896345 c 0.222805,0.2723171 0.111403,0.3342069 -0.507499,0.2846949 -0.5075,-0.037134 -0.519879,-0.049512 -0.309452,-0.2599386 0.272318,-0.2599393 0.606525,-0.2723171 0.816951,-0.024758 z m 1.906221,0.8540859 c 0.482744,0.198048 0.816951,0.63128 0.816951,1.027378 v 0.284695 h -3.094513 c -3.4410975,0 -3.4534757,0 -3.0078659,-0.767439 0.1485365,-0.247561 0.4084757,-0.470366 0.6560369,-0.557013 0.63128,-0.222804 4.097134,-0.210426 4.629391,0.01238 z m -5.8795741,1.26256 c 0.024754,0.123781 0.099024,0.272318 0.1856705,0.32183 0.2228049,0.148536 6.4860986,0.12378 6.7707936,-0.02476 0.12378,-0.07427 0.235182,-0.247561 0.235182,-0.38372 0,-0.18567 0.06189,-0.235183 0.198049,-0.18567 0.111402,0.03713 0.38372,0.07427 0.618903,0.07427 0.346585,0 0.44561,0.06189 0.544634,0.321829 0.123781,0.321829 0.371342,0.309451 0.371342,-0.02475 0,-0.148537 0.09902,-0.160915 0.470365,-0.09903 0.730305,0.12378 0.891221,0.259939 0.5075,0.396097 -0.903597,0.346587 -2.401342,0.457989 -6.362317,0.457989 -3.3792075,0 -4.2828052,-0.03713 -5.2606712,-0.222805 -0.6436584,-0.12378 -1.2254268,-0.272317 -1.274939,-0.321829 -0.06189,-0.06189 0.1485365,-0.160914 0.4579879,-0.247561 0.742683,-0.18567 0.779817,-0.173293 0.8540855,0.123781 0.086646,0.309451 0.3342073,0.198049 0.3342073,-0.136159 0,-0.185671 0.1114024,-0.247561 0.5322559,-0.284695 0.705549,-0.06189 0.7550612,-0.03713 0.8169515,0.235182 z m -5.3473174,0.878842 c 0.4084754,0.433232 0.9654876,0.854086 1.2501827,0.977866 l 0.5198782,0.198048 v 1.21305 c 0,0.668414 0.024758,1.287317 0.06189,1.386342 0.037134,0.08665 0.012379,0.235182 -0.049512,0.334207 C 5.234181,16.972224 5.1104004,16.93509 4.6276567,16.662772 3.3279614,15.895333 2.5729005,14.719419 2.3129613,13.06076 2.1891811,12.29332 2.2015588,12.095272 2.3253403,12.008625 c 0.2846952,-0.173293 0.433232,-0.07427 1.2130482,0.705549 z m 3.527744,0.123781 c 0.9531098,0.18567 1.8814637,0.222805 5.4215855,0.210426 2.735549,0 4.542745,-0.04951 5.01311,-0.148536 0.408476,-0.07427 0.95311,-0.173293 1.213049,-0.222805 l 0.457989,-0.08665 v 1.510122 1.497745 h -0.866465 -0.866463 v 0.43323 0.433232 l -2.562256,0.02476 -2.574635,0.03713 v 1.349207 l 0.01238,1.349207 -1.807196,-0.08665 C 8.6381447,19.051737 7.3879617,18.915578 6.3977179,18.680395 l -0.5941466,-0.13616 v -2.958354 c 0,-1.621524 0.024758,-2.958353 0.06189,-2.958353 0.037134,0 0.5817684,0.09902 1.2006712,0.210427 z m 16.5618305,4.307561 c 0,1.609146 -0.334207,2.265183 -1.485366,2.859329 -0.643659,0.334207 -2.265183,0.321829 -2.846951,-0.02475 l -0.433233,-0.247561 0.04951,-1.633903 0.03714,-1.633902 h -0.569391 c -0.482744,0 -0.56939,-0.03713 -0.56939,-0.247562 0,-0.235182 0.08665,-0.24756 2.908841,-0.24756 h 2.908842 z m -5.075,0.792195 c 0,0.965488 -0.03713,1.175914 -0.346586,1.757683 -0.457988,0.891219 -1.200671,1.349207 -2.277561,1.435854 -1.027378,0.08665 -1.732927,-0.123781 -2.351829,-0.680793 -0.668415,-0.606524 -0.854086,-1.076891 -0.928354,-2.463232 l -0.07427,-1.151158 h 2.995487 2.983111 z"
       style="fill:#000000;stroke:none;stroke-width:0.012378" />
    <path
       id="path9501"
       d="m 10.692901,5.3244786 c -0.03713,0.074268 0.01238,0.1609146 0.12378,0.1980486 0.235183,0.099024 0.371342,0 0.247562,-0.1856705 -0.09902,-0.1732923 -0.272317,-0.1732923 -0.371342,-0.012378 z"
       style="fill:#000000;stroke:none;stroke-width:0.012378" />
    <path
       id="path9503"
       d="m 11.794547,5.3368567 c -0.03713,0.074268 -0.02475,0.1856705 0.02476,0.2351827 0.148536,0.1485368 0.470366,-0.06189 0.371341,-0.2351827 -0.111402,-0.1732923 -0.284695,-0.1732923 -0.396098,0 z"
       style="fill:#000000;stroke:none;stroke-width:0.012378" />
    <path
       id="path9505"
       d="m 12.821925,5.2749665 c -0.160914,0.1609146 -0.08665,0.2970729 0.173293,0.2970729 0.136159,0 0.235183,-0.06189 0.210428,-0.1485365 -0.06189,-0.1732927 -0.272318,-0.2599385 -0.383721,-0.1485364 z"
       style="fill:#000000;stroke:none;stroke-width:0.012378" />
    <path
       id="path9507"
       d="m 13.775036,5.3368567 c -0.123781,0.2104268 0.160914,0.4456098 0.334207,0.2723171 0.148536,-0.1485368 0.04951,-0.4084758 -0.136159,-0.4084758 -0.06189,0 -0.148537,0.06189 -0.198048,0.1361587 z"
       style="fill:#000000;stroke:none;stroke-width:0.012378" />
    <path
       id="path9509"
       d="m 15.706011,14.051004 c -0.09902,0.111402 -0.12378,0.309451 -0.06189,0.519878 0.04951,0.198048 0.09902,0.519878 0.111403,0.742683 0.02476,0.532256 0.136159,0.606524 0.38372,0.247561 0.185671,-0.297073 0.185671,-0.346586 -0.01238,-0.717927 -0.148537,-0.297074 -0.173292,-0.457988 -0.07427,-0.618903 0.222805,-0.346585 -0.07427,-0.495122 -0.346585,-0.173292 z"
       style="fill:#000000;stroke:none;stroke-width:0.012378" />
    <path
       id="path9511"
       d="m 6.3234495,14.236674 c 0.074268,0.235183 0.5075,0.334208 2.0547563,0.482745 1.4606099,0.148536 4.2085372,0.198048 4.3199392,0.09902 0.222805,-0.235184 -0.235183,-0.334208 -1.547256,-0.334208 -1.3615855,-0.01238 -2.9088419,-0.12378 -4.2828055,-0.321829 -0.4827438,-0.07427 -0.5941462,-0.04951 -0.544634,0.07427 z"
       style="fill:#000000;stroke:none;stroke-width:0.012378" />
    <path
       id="path9513"
       d="m 14.579609,14.496614 c -0.06189,0.272316 -0.06189,1.225427 0,1.225427 0.371342,0 0.519878,-0.854086 0.198049,-1.114025 -0.09903,-0.08665 -0.185671,-0.136159 -0.198049,-0.111402 z"
       style="fill:#000000;stroke:none;stroke-width:0.012378" />
    <path
       id="path9515"
       d="m 6.1996689,15.734418 c 0.074268,0.222805 1.3368296,0.433232 3.1811589,0.557012 1.1759152,0.07427 1.3987192,0.06189 1.3492072,-0.08665 -0.03713,-0.12378 -0.482744,-0.210427 -1.5967683,-0.309451 -0.8417074,-0.08665 -1.8567075,-0.18567 -2.2651832,-0.235183 -0.5941462,-0.07427 -0.7179268,-0.06189 -0.6684146,0.07427 z"
       style="fill:#000000;stroke:none;stroke-width:0.012378" />
    <path
       id="path9517"
       d="m 6.249181,17.18265 c -0.1114024,0.18567 0,0.235183 1.0397563,0.38372 1.5720123,0.222804 2.2156711,0.259939 2.3023172,0.12378 C 9.7150351,17.479723 9.6036334,17.442589 8.5143642,17.331186 7.9449739,17.269297 7.2146689,17.18265 6.9052179,17.133138 6.5462543,17.083626 6.2986935,17.10838 6.249181,17.18265 Z"
       style="fill:#000000;stroke:none;stroke-width:0.012378" />
    <path
       id="path9519"
       d="m 13.378938,17.838687 c 0.02476,0.07427 0.09903,0.12378 0.160915,0.12378 0.06189,0 0.136158,-0.04951 0.160914,-0.12378 0.02476,-0.07427 -0.04951,-0.136159 -0.160914,-0.136159 -0.111403,0 -0.185671,0.06189 -0.160915,0.136159 z"
       style="fill:#000000;stroke:none;stroke-width:0.012378" />
    <path
       id="path9521"
       d="m 14.133999,17.851064 c 0.02475,0.09903 0.272317,0.160915 0.643659,0.160915 0.371341,0 0.618902,-0.06189 0.656036,-0.160915 0.03713,-0.111402 -0.148536,-0.148536 -0.656036,-0.148536 -0.507501,0 -0.693172,0.03713 -0.643659,0.148536 z"
       style="fill:#000000;stroke:none;stroke-width:0.012378" />
    <path
       id="path9523"
       d="m 20.137353,5.460637 c -0.569391,0.4208538 -1.435854,1.6710369 -1.5225,2.2032928 -0.09902,0.6189027 0.173292,1.6215247 0.618902,2.2775612 0.185671,0.259939 0.346586,0.618902 0.358964,0.804573 0.04951,0.371342 0.247561,0.482744 0.5075,0.272317 0.148537,-0.12378 0.259939,-0.08665 0.56939,0.173293 0.990244,0.841707 2.203293,0.928354 3.540122,0.259939 0.470366,-0.235183 0.965488,-0.532256 1.076891,-0.668415 0.210426,-0.235183 0.198048,-0.259939 -0.32183,-0.643658 -0.792196,-0.5817685 -1.708171,-0.9778661 -2.265183,-0.9778661 -0.668414,0 -1.497744,0.3960976 -2.116646,1.0026221 -0.755062,0.742683 -0.816951,0.371342 -0.07427,-0.4332317 C 21.28851,8.8646006 21.498936,8.196186 21.313265,7.1316739 21.164729,6.3394787 20.731498,5.200698 20.570582,5.200698 c -0.04951,0 -0.24756,0.1237806 -0.433231,0.259939 z m 0.656036,1.1140247 c 0.38372,1.2625609 0.235184,2.03 -0.557012,2.9335977 -0.433231,0.4827438 -0.457987,0.1732927 -0.136158,-1.3120734 0.06189,-0.272317 0.04951,-0.3960975 -0.04951,-0.3960975 -0.18567,0 -0.507499,0.7550611 -0.507499,1.1635368 0,0.4456098 -0.198049,0.4951219 -0.346586,0.099024 -0.408476,-1.0768904 -0.259939,-1.720549 0.606525,-2.6736588 0.346585,-0.3837194 0.656036,-0.6931708 0.680792,-0.6931708 0.02476,0 0.160915,0.3960976 0.309451,0.8788417 z m 2.809818,3.2059147 c 0.297073,0.1361587 0.705549,0.3589636 0.903597,0.5074996 0.457988,0.32183 0.371342,0.457988 -0.643658,0.915976 -0.940732,0.420854 -1.906219,0.396098 -2.636525,-0.04951 -0.408475,-0.259939 -0.44561,-0.309451 -0.259939,-0.420854 0.123781,-0.06189 0.557013,-0.08665 1.002622,-0.03713 0.631281,0.06189 0.792195,0.04951 0.792195,-0.08665 0,-0.198048 -0.5075,-0.334207 -1.287317,-0.346585 h -0.5075 l 0.297073,-0.210427 c 0.76744,-0.5446339 1.534878,-0.6312805 2.339452,-0.2723166 z"
       style="fill:#000000;stroke:none;stroke-width:0.012378" />
    <path
       id="path9525"
       d="m 20.830523,13.097894 c -0.24756,0.160914 -0.272316,0.482743 -0.08665,0.866463 0.148537,0.309452 0.160915,0.433232 0.04951,0.569391 -0.198048,0.24756 0.06189,0.396098 0.309452,0.185671 0.136164,-0.111403 0.173298,-0.272318 0.111408,-0.532258 -0.03713,-0.210426 -0.08665,-0.532255 -0.09902,-0.717926 -0.02476,-0.383719 -0.111403,-0.482744 -0.284696,-0.371341 z"
       style="fill:#000000;stroke:none;stroke-width:0.012378" />
    <path
       id="path9527"
       d="m 21.796011,14.075759 c 0.01238,0.19805 0,0.433232 -0.03713,0.532257 -0.08665,0.334207 0.309452,0.198048 0.433232,-0.148537 0.08665,-0.235183 0.07427,-0.38372 -0.04951,-0.519878 -0.235189,-0.297073 -0.35897,-0.235183 -0.346592,0.136158 z"
       style="fill:#000000;stroke:none;stroke-width:0.012378" />
    <path
       id="path9529"
       d="m 18.949061,21.316919 c 0.04951,0.12378 0.495121,0.160914 1.807194,0.160914 2.388964,0 2.35183,-0.235183 -0.04951,-0.284695 -1.423475,-0.02476 -1.794817,0 -1.757682,0.123781 z"
       style="fill:#000000;stroke:none;stroke-width:0.012378" />
    <path
       id="path9531"
       d="m 13.787413,22.158626 c -0.136158,0.210426 0.210427,0.259939 1.918598,0.222805 1.188293,-0.02476 1.671037,-0.08665 1.708171,-0.198049 0.06189,-0.185671 -3.502988,-0.222805 -3.626769,-0.02475 z"
       style="fill:#000000;stroke:none;stroke-width:0.012378" />
  </g>
</svg>
