<?xml version="1.0" encoding="UTF-8" standalone="no"?>
<svg
   xmlns:dc="http://purl.org/dc/elements/1.1/"
   xmlns:cc="http://creativecommons.org/ns#"
   xmlns:rdf="http://www.w3.org/1999/02/22-rdf-syntax-ns#"
   xmlns:svg="http://www.w3.org/2000/svg"
   xmlns="http://www.w3.org/2000/svg"
   id="svg7632"
   version="1.1"
   viewBox="0 0 26.458333 26.458334"
   height="100"
   width="100">
  <defs
     id="defs7626" />
  <metadata
     id="metadata7629">
    <rdf:RDF>
      <cc:Work
         rdf:about="">
        <dc:format>image/svg+xml</dc:format>
        <dc:type
           rdf:resource="http://purl.org/dc/dcmitype/StillImage" />
        <dc:title></dc:title>
      </cc:Work>
    </rdf:RDF>
  </metadata>
  <g
     id="layer1">
    <g
       transform="matrix(0.10077683,0,0,0.10077683,-110.61067,-19.779911)"
       id="g6341">
      <path
         id="path6337"
         d="m 1228.3632,267.94162 c -0.4,0.3 -0.7,2.1 -0.7,4 0,8 -4.4,13.1 -16.6,19.2 -10.9,5.4 -14,9.1 -13.7,16.8 0.1,1.7 -0.1,1.7 -4.7,-0.7 -5.1,-2.6 -13.9,-2.7 -17,-0.2 l -2.2,1.8 18.2,15.9 c 19.2,16.9 23.3,19.9 29.1,21.5 6.5,1.8 29,4.6 29.6,3.7 1.1,-1.8 -1.4,-2.5 -14.2,-4.2 -8.2,-1.1 -14.9,-2.6 -18,-4 -3.1,-1.4 -11.8,-8.2 -22.5,-17.6 l -17.5,-15.4 4.7,-0.3 c 5.9,-0.4 8.4,0.9 21.9,10.9 14.1,10.5 15,10.9 23.9,10.9 h 7.5 l 10.5,-6.5 c 13.2,-8.3 17.8,-9.7 31,-10 6.2,-0.2 10.6,-0.7 10.8,-1.3 0.5,-1.6 -8.1,-2.6 -16.3,-1.9 l -7.3,0.7 -0.6,-3.2 c -0.3,-1.8 -1.6,-4.2 -2.8,-5.5 l -2.1,-2.3 h 8.1 c 4.8,0 13.6,1.1 20.8,2.5 15.4,3.1 41.4,3.7 41.4,1 0,-1.3 -2.3,-1.5 -14.4,-1.5 -11.6,0 -16.7,-0.5 -26.2,-2.5 -7.8,-1.7 -15.1,-2.6 -21.1,-2.6 h -9.3 v -4.7 c 0,-8.5 -5.4,-14 -21.3,-21.5 -8.7,-4.1 -8.1,-3.9 -9,-3 z m 5.1,7.8 c 0.7,1.4 1.2,4.5 1.2,6.8 0,9.1 -7.1,16.2 -17.5,17.5 -4.3,0.5 -6,1.1 -6,2.2 0,1.1 1,1.4 3.5,1.3 11.4,-0.8 20.2,-7.1 22.5,-15.9 0.9,-3.5 1.1,-6.5 0.5,-9 -0.5,-2.1 -0.7,-4 -0.5,-4.2 0.5,-0.5 7.5,3.3 11.4,6.2 1.9,1.4 4.3,3.8 5.3,5.3 3.9,6 1,15 -5.6,17.4 -3.8,1.4 -4.9,3.9 -1.7,3.9 1,0 3.5,-1.1 5.5,-2.5 4.2,-2.9 7,-2.2 8.6,2.1 1.7,4.4 1.2,5.1 -5.7,8.4 -11,5.2 -15.8,6.3 -24.5,5.7 -4.5,-0.3 -7.8,-0.1 -7.8,0.4 0,1.6 4.8,2.9 10.8,2.9 5.2,0.1 5.5,0.2 3.8,1.5 -1.3,1 -4.4,1.5 -9.1,1.5 h -7.2 l -8.9,-6.4 c -5,-3.5 -9.6,-7.1 -10.3,-8 -1.8,-2.1 -1.6,-9.2 0.3,-12.1 0.9,-1.3 6.1,-4.7 11.7,-7.6 10.9,-5.6 15.3,-10 16.5,-16.5 0.7,-4.1 1.7,-4.3 3.2,-0.9 z"
         style="fill:#000000;stroke:none;stroke-width:0.1" />
      <path
         id="path6339"
         d="m 1149.6632,297.54162 c -4.7,1.6 -4.7,3.6 -0.1,7.2 2.1,1.6 3.7,3.3 3.5,3.6 -0.2,0.4 -2.1,0.9 -4.3,1.3 -3.6,0.5 -10.1,4.8 -10.1,6.5 0,0.5 4.8,3.9 10.8,7.6 5.9,3.8 17.5,11.3 25.7,16.6 18.5,11.8 21.1,13.1 30.5,15.5 l 7.5,1.8 -4.5,0.8 c -6,1.1 -6.7,0.9 -34.8,-8.4 -23.6,-7.8 -24.3,-8.1 -22.6,-9.9 1.2,-1.3 3.1,-1.9 6.1,-1.9 6.1,0 5.2,-2.4 -1,-2.8 -4.1,-0.3 -5.1,0.1 -7.7,2.7 -1.7,1.6 -3,3.6 -3,4.5 0,1 7.7,4 27.8,10.7 l 27.7,9.2 11.1,-1.3 c 10.5,-1.2 11.7,-1.2 22.2,1 14.4,3 16,2.7 43.5,-9.4 27.1,-11.9 29.5,-12.6 42,-12.6 7.4,0 9.8,-0.3 9.5,-1.3 -0.7,-1.9 -17.7,-2.1 -24.6,-0.3 -3.1,0.8 -15.6,5.8 -27.7,11.1 -24,10.5 -29.4,12.1 -37,10.6 -10.7,-2.1 -40.2,-9.2 -43,-10.3 -2.3,-1 -52.7,-32.8 -54.3,-34.3 -1.1,-1.1 6.5,-3.5 10.7,-3.5 5.4,0 5.5,0.1 35.4,24.7 8.2,6.8 11.7,8.7 11.7,6.4 0,-0.8 -20.9,-18.3 -43,-36 -7.8,-6.3 -7.7,-6.1 -6,-7.1 2.6,-1.7 10.9,-1.1 15.2,1 4.9,2.4 5.8,2.5 5.8,0.6 0,-0.7 -2.2,-2.3 -4.9,-3.5 -5.5,-2.3 -12.6,-2.7 -18.1,-0.8 z"
         style="fill:#000000;stroke:none;stroke-width:0.1" />
    </g>
  </g>
</svg>
