<?xml version="1.0" encoding="UTF-8" standalone="no"?>
<svg
   xmlns:dc="http://purl.org/dc/elements/1.1/"
   xmlns:cc="http://creativecommons.org/ns#"
   xmlns:rdf="http://www.w3.org/1999/02/22-rdf-syntax-ns#"
   xmlns:svg="http://www.w3.org/2000/svg"
   xmlns="http://www.w3.org/2000/svg"
   id="svg7030"
   version="1.1"
   viewBox="0 0 26.458333 26.458334"
   height="100"
   width="100">
  <defs
     id="defs7024" />
  <metadata
     id="metadata7027">
    <rdf:RDF>
      <cc:Work
         rdf:about="">
        <dc:format>image/svg+xml</dc:format>
        <dc:type
           rdf:resource="http://purl.org/dc/dcmitype/StillImage" />
        <dc:title></dc:title>
      </cc:Work>
    </rdf:RDF>
  </metadata>
  <g
     id="layer1">
    <g
       id="g6067"
       transform="matrix(0.09414252,0,0,0.09414252,104.10969,2.0611869)">
      <path
         style="fill:#000000;stroke:none;stroke-width:0.1"
         d="m -1047.8175,33.2792 v 12.5 l 19.8,0.1 h 19.7 l -14.4,3.5 c -8,1.8 -14.8,3.7 -15.1,4.1 -0.4,0.5 -1.4,3.7 -2.3,7.3 -6.2,25.3 -7.2,34.7 -7.2,67.5 0,22.6 0.4,31.6 1.8,41 2.3,16.1 7.2,35.7 9.3,37.2 2,1.5 15.9,4.8 28.4,6.7 37.7,5.9 80.2,4.1 114.5,-4.7 l 8.9,-2.3 1.3,-4.5 c 10.9,-37.2 11.7,-94.7 1.8,-134.9 -3.9,-15.7 -2.4,-14.3 -17.4,-17.6 l -13.1,-2.9 18.7,-0.5 18.8,-0.5 v -12 -12 l -86.7,-0.3 -86.8,-0.2 z m 170.1,-8.8 c 0.8,8.4 0.9,14 0.5,15.9 l -0.6,2.4 h -83.5 -83.5 v -9.5 -9.5 h 83.5 c 45.9,0 83.5,0.3 83.6,0.7 z m -56.6,22.3 c 13.9,1.3 33.2,4.5 41,6.8 l 6,1.8 2.3,9 c 5.6,22 6.6,31.6 6.7,65.4 0,25.7 -0.3,33.6 -1.8,43 -1.7,10.3 -6,29.6 -6.9,30.5 -0.2,0.2 -3.9,1.3 -8.3,2.5 -23.3,6.1 -55.9,8.9 -83.8,7.2 -17.8,-1.1 -37.4,-3.9 -48.8,-7 l -6.4,-1.7 -1.7,-5.2 c -9.7,-29 -11.6,-84.8 -4.3,-123.3 1.8,-9.1 4.2,-19 4.9,-19.7 0.7,-0.7 10.7,-3.3 20.6,-5.2 8.3,-1.7 19.8,-3.3 32,-4.4 8.3,-0.8 38.4,-0.6 48.5,0.3 z"
         id="path6049" />
      <path
         style="fill:#000000;stroke:none;stroke-width:0.1"
         d="m -918.3175,67.2792 c -5.6,1 -20.7,1.4 -50.8,1.4 l -42.9,0.1 -2.9,2.9 c -2,2 -2.9,3.9 -2.9,6.1 0,2.2 0.9,4.1 2.9,6.1 l 2.9,2.9 30.4,0.1 c 16.7,0 34.8,0 40.3,-0.1 5.5,0 15.2,0.6 21.5,1.5 6.3,0.8 11.8,1.5 12.2,1.5 1.3,0 2.8,-6.5 2.8,-12 0,-7.1 -1.6,-12 -3.8,-11.9 -1,0.1 -5.3,0.7 -9.7,1.4 z m 10.1,5 c 0.6,2.6 0.1,13.2 -0.7,13.9 -0.2,0.2 -4,-0.2 -8.4,-0.8 l -8,-1.1 v -6.5 -6.5 l 5,-0.6 c 10.5,-1.2 11.4,-1.1 12.1,1.6 z m -44.6,5.5 v 6 h -29 c -27.7,0 -29.1,-0.1 -31,-2 -1.1,-1.1 -2,-2.9 -2,-4 0,-1.1 0.9,-2.9 2,-4 1.9,-1.9 3.3,-2 31,-2 h 29 z m 24,0 v 6 h -10.5 -10.5 v -6 -6 h 10.5 10.5 z"
         id="path6051" />
      <path
         style="fill:#000000;stroke:none;stroke-width:0.1"
         d="m -1026.9175,102.6792 -2.4,1.9 v 26.2 26.2 l 2.4,1.9 c 2.2,1.8 4.2,1.9 30.7,1.9 27.1,0 28.5,-0.1 30.4,-2 1.9,-1.9 2,-3.3 2,-27.9 v -26 l -2.6,-2 c -2.6,-2 -3.9,-2.1 -30.4,-2.1 -25.9,0 -27.9,0.1 -30.1,1.9 z m 58.9,2.3 c 1.7,1.7 1.7,49.9 0,51.6 -0.9,0.9 -8.5,1.2 -27.9,1.2 -14.7,0 -27.4,-0.3 -28.3,-0.6 -1.4,-0.5 -1.6,-3.8 -1.6,-26.4 0,-19.7 0.3,-26 1.3,-26.3 0.6,-0.3 13.4,-0.6 28.3,-0.6 19.7,-0.1 27.3,0.2 28.2,1.1 z"
         id="path6053" />
      <path
         style="fill:#000000;stroke:none;stroke-width:0.1"
         d="m -956.2175,102.8792 -2.6,2 v 25.8 c 0,25.6 0,25.8 2.3,27.9 2.3,2.2 2.9,2.2 30.8,2.2 28.5,0 28.6,0 30.7,-2.3 2.1,-2.3 2.2,-3 2.2,-27.6 v -25.2 l -2.5,-2.4 -2.4,-2.5 h -27.9 c -26.7,0 -28,0.1 -30.6,2.1 z m 58.8,2.5 c 1.4,1.3 1.6,5.1 1.6,25.8 0,17.5 -0.3,24.5 -1.2,25.4 -1.7,1.7 -55.9,1.7 -57.6,0 -0.9,-0.9 -1.2,-8 -1.2,-26 0,-22.5 0.2,-24.8 1.8,-25.7 1,-0.6 12.1,-1.1 28.4,-1.1 22.9,0 26.9,0.2 28.2,1.6 z"
         id="path6055" />
      <path
         style="fill:#000000;stroke:none;stroke-width:0.1"
         d="m -1012.1175,172.4792 c -12.5,4.2 -13.1,12.9 -1.2,17.9 5.2,2.1 18.7,3 24.3,1.5 l 4.2,-1.2 v -9.3 -9.4 l -3.1,-0.6 c -5.7,-1.1 -19.3,-0.5 -24.2,1.1 z m 22.7,1.9 c 1.2,0.5 1.6,2.1 1.6,7.4 v 6.7 l -3.1,0.7 c -11,2.2 -27.9,-2.2 -27.9,-7.3 0,-2.5 3.1,-5 8.2,-6.6 4.4,-1.4 18.4,-2 21.2,-0.9 z"
         id="path6057" />
      <path
         style="fill:#000000;stroke:none;stroke-width:0.1"
         d="m -980.8175,181.7792 v 9 h 36.4 c 21.7,0 37.5,-0.4 39.1,-1 3.1,-1.2 5.5,-6.4 4.8,-10.3 -0.3,-1.5 -1.7,-3.6 -3.1,-4.7 -2.4,-1.9 -4.1,-2 -39.8,-2 h -37.4 z m 75.1,-5 c 2.4,1.3 2.6,6.6 0.2,9.2 -1.5,1.7 -4,1.8 -37,1.8 h -35.3 v -6 -6 h 35.1 c 22.2,0 35.7,0.4 37,1 z"
         id="path6059" />
    </g>
  </g>
</svg>
